<svg xmlns="http://www.w3.org/2000/svg" width="1200" height="630">
  <rect width="1200" height="630" fill="#F4F1EB"/>

  <!-- Open Fleet mark: 200×200, center at (388, 315) -->
  <svg x="288" y="215" width="200" height="200" viewBox="0 0 200 200">
    <defs>
      <path id="h" d="M959 75H924l-10-7c-250-68-650-68-864-18v25h-45a5 3 0 0 0 0 6H50v25c214 50 614 50 864-18l10-7H959a5 3 0 0 0 0-6"/>
    </defs>
    <use href="#h" fill="#0E1733" transform="translate(109.32 137.32) rotate(-11) scale(.11321) translate(-482 -78)"/>
    <use href="#h" fill="#0E1733" transform="translate(100 100) rotate(-23) scale(.14465) translate(-482 -78)"/>
    <use href="#h" fill="#0E1733" transform="translate(67.25 79.14) rotate(-6) scale(.10901) translate(-482 -78)"/>
  </svg>

  <!-- Wordmark: "Baidarka" large, "Labs" subdued below -->
  <text x="528" y="308"
        font-family="Georgia, serif"
        font-size="88"
        font-weight="400"
        letter-spacing="-1.5"
        fill="#0E1733">Baidarka</text>

  <text x="530" y="373"
        font-family="Georgia, serif"
        font-size="46"
        font-weight="400"
        letter-spacing="-0.5"
        fill="#0E1733"
        opacity="0.55">Labs</text>
</svg>
